<svg id="congresso_remoto" data-name="Congresso Remoto"
  xmlns="http://www.w3.org/2000/svg" viewBox="0 0 504.53 99.94">
  <defs>
    <style>.cls-1{fill:#a6a6bf;}.cls-2{fill:#3b3e99;}</style>
  </defs>
  <title>Congresso Remoto</title>
  <path class="cls-1" d="M199.65,44.72h-152V5h110.7c14.2.44,27.79,7.72,35.38,19.53C197.66,30.64,200.09,38.84,199.65,44.72Z"/>
  <path d="M67.84,5h0Z"/>
  <path class="cls-2" d="M93.13,5a70.17,70.17,0,0,1-1.25,8.42C87.42,29.86,76.36,39.59,60.14,43.51c-18,4.35-37.25-3.35-46.92-18.33C9.29,19.08,6.85,10.88,7.29,5Z"/>
  <path class="cls-1" d="M7.29,94.94h152V55.22H48.61c-14.2.44-27.79,7.72-35.38,19.53C9.28,80.86,6.86,89.06,7.29,94.94Z"/>
  <path class="cls-2" d="M113.82,55.22a70.17,70.17,0,0,0,1.25,8.42c4.46,16.44,15.52,26.17,31.74,30.09,18,4.35,37.25-3.35,46.92-18.33,3.94-6.1,6.37-14.3,5.93-20.18Z"/>
  <path class="cls-2" d="M239.2,69.37A8.26,8.26,0,0,1,235,72.52l6.43,12.1H231.05l-5.12-10.54h-3.44V84.62H213.2V55.72h17.68a11,11,0,0,1,5.31,1.2,8,8,0,0,1,3.32,3.23,9.1,9.1,0,0,1,1.11,4.43A8.44,8.44,0,0,1,239.2,69.37Zm-8.78-6.3a2.51,2.51,0,0,0-1.85-.76h-6.09v5.33h6.09a2.48,2.48,0,0,0,1.85-.78,2.64,2.64,0,0,0,.76-1.91A2.56,2.56,0,0,0,230.42,63.07Z"/>
  <path class="cls-2" d="M244.83,55.72h25v6.93H254.11v4h13.44v6.64H254.11v4.41h16v6.93H244.83Z"/>
  <path class="cls-2" d="M298.92,84.62V74.2q0-1.93.15-4t.31-3.42q.17-1.39.21-1.76h-.17l-5.33,19.57h-7.27l-5.38-19.53h-.17q0,.38.23,1.74t.36,3.4q.17,2,.17,4V84.62h-8.53V55.72h13.1L291,72.4h.17l4.33-16.67h12.64v28.9Z"/>
  <path class="cls-2" d="M338.61,59q4.07,3.82,4.07,11.13T338.61,81.3q-4.08,3.82-11.55,3.82t-11.53-3.8q-4.05-3.8-4.05-11.15T315.53,59q4.05-3.8,11.53-3.8T338.61,59ZM322.53,64A7.22,7.22,0,0,0,321,68.83v2.69a7.21,7.21,0,0,0,1.55,4.87,5.65,5.65,0,0,0,4.54,1.81,5.72,5.72,0,0,0,4.56-1.81,7.15,7.15,0,0,0,1.58-4.87V68.83A7.16,7.16,0,0,0,331.62,64a5.72,5.72,0,0,0-4.56-1.81A5.66,5.66,0,0,0,322.53,64Z"/>
  <path class="cls-2" d="M362.18,63.11v21.5h-9.28V63.11H343.4V55.72h28.22v7.39Z"/>
  <path class="cls-2" d="M399.3,59q4.07,3.82,4.07,11.13T399.3,81.3q-4.07,3.82-11.55,3.82t-11.53-3.8q-4.05-3.8-4.05-11.15T376.22,59q4.05-3.8,11.53-3.8T399.3,59ZM383.22,64a7.22,7.22,0,0,0-1.55,4.87v2.69a7.21,7.21,0,0,0,1.55,4.87,5.65,5.65,0,0,0,4.54,1.81,5.72,5.72,0,0,0,4.56-1.81,7.15,7.15,0,0,0,1.58-4.87V68.83A7.15,7.15,0,0,0,392.31,64a5.72,5.72,0,0,0-4.56-1.81A5.66,5.66,0,0,0,383.22,64Z"/>
  <path class="cls-2" d="M238.36,18q3.74,3.21,3.74,9.18h-8.86a5.74,5.74,0,0,0-1.32-4,5.64,5.64,0,0,0-7.9.29,8,8,0,0,0-1.32,4.91v2.69A8.05,8.05,0,0,0,224,36a4.71,4.71,0,0,0,4.05,1.79,5.52,5.52,0,0,0,4.07-1.39,5.28,5.28,0,0,0,1.39-3.91h8.57q0,5.92-3.63,9.07T228.2,44.72q-7.39,0-11.19-3.78t-3.8-11.17q0-7.39,3.8-11.17t11.19-3.78Q234.62,14.82,238.36,18Z"/>
  <path class="cls-2" d="M272,18.64Q276,22.46,276,29.77T272,40.9q-4.07,3.82-11.55,3.82t-11.53-3.8q-4.05-3.8-4.05-11.15t4.05-11.15q4.05-3.8,11.53-3.8T272,18.64Zm-16.09,4.91a7.22,7.22,0,0,0-1.55,4.87v2.69A7.21,7.21,0,0,0,255.87,36a5.65,5.65,0,0,0,4.54,1.81A5.72,5.72,0,0,0,265,36a7.15,7.15,0,0,0,1.58-4.87V28.43A7.15,7.15,0,0,0,265,23.55a5.72,5.72,0,0,0-4.56-1.81A5.66,5.66,0,0,0,255.87,23.55Z"/>
  <path class="cls-2" d="M300.65,44.22l-12.14-14v14H280V15.32h8.11l12.14,14.24V15.32h8.53v28.9Z"/>
  <path class="cls-2" d="M335.93,16.08a12,12,0,0,1,5.27,3.72,9.32,9.32,0,0,1,2,6h-8.86a3.41,3.41,0,0,0-1.6-2.92,7.63,7.63,0,0,0-8.82.63,6.82,6.82,0,0,0-1.68,4.93v2.69A6.82,6.82,0,0,0,323.87,36a6.57,6.57,0,0,0,5,1.74,6.78,6.78,0,0,0,3.86-1.07,3.21,3.21,0,0,0,1.6-2.75h-6.55V28.09h15.41V44.22h-4.79l-.92-2.86q-3.95,3.36-10.33,3.36-7.18,0-10.79-3.76T312.7,29.77q0-7.35,4.09-11.15t11.66-3.8A20.92,20.92,0,0,1,335.93,16.08Z"/>
  <path class="cls-2" d="M373.85,29a8.26,8.26,0,0,1-4.16,3.15l6.43,12.1H365.7l-5.12-10.54h-3.44V44.22h-9.28V15.32h17.68a11,11,0,0,1,5.31,1.2,8,8,0,0,1,3.32,3.23,9.1,9.1,0,0,1,1.11,4.43A8.44,8.44,0,0,1,373.85,29Zm-8.78-6.3a2.51,2.51,0,0,0-1.85-.76h-6.09v5.33h6.09a2.48,2.48,0,0,0,1.85-.78,2.64,2.64,0,0,0,.76-1.91A2.56,2.56,0,0,0,365.07,22.67Z"/>
  <path class="cls-2" d="M379.48,15.32h25v6.93H388.76v4H402.2v6.64H388.76v4.41h16v6.93H379.48Z"/>
  <path class="cls-2" d="M430,17.06a7.55,7.55,0,0,1,3.65,6.66v.5H425v-.17A2.72,2.72,0,0,0,424,22a4.08,4.08,0,0,0-2.81-.84,6,6,0,0,0-2.83.55,1.57,1.57,0,0,0-1,1.34,1.8,1.8,0,0,0,1.34,1.68,25.81,25.81,0,0,0,4.33,1.13,46.85,46.85,0,0,1,5.73,1.49,9.78,9.78,0,0,1,3.93,2.54,6.8,6.8,0,0,1,1.72,4.79q0,5.13-3.46,7.6t-9.26,2.48q-6.76,0-10.52-2.27t-3.76-8h8.78q0,2.18,1.13,2.92a6.63,6.63,0,0,0,3.53.74,9.54,9.54,0,0,0,2.92-.38A1.51,1.51,0,0,0,425,36.15a1.71,1.71,0,0,0-1.28-1.57,25.5,25.5,0,0,0-4.18-1.11,47.93,47.93,0,0,1-5.84-1.58,9.84,9.84,0,0,1-4-2.71,7.32,7.32,0,0,1-1.72-5.12,7.61,7.61,0,0,1,3.67-7,17.58,17.58,0,0,1,9.3-2.25A16.85,16.85,0,0,1,430,17.06Z"/>
  <path class="cls-2" d="M459.28,17.06a7.55,7.55,0,0,1,3.65,6.66v.5h-8.69v-.17a2.72,2.72,0,0,0-.92-2.1,4.08,4.08,0,0,0-2.81-.84,6,6,0,0,0-2.83.55,1.57,1.57,0,0,0-1,1.34A1.8,1.8,0,0,0,448,24.69a25.81,25.81,0,0,0,4.33,1.13,46.85,46.85,0,0,1,5.73,1.49A9.78,9.78,0,0,1,462,29.85a6.8,6.8,0,0,1,1.72,4.79q0,5.13-3.46,7.6T451,44.72q-6.76,0-10.52-2.27t-3.76-8h8.78q0,2.18,1.13,2.92a6.63,6.63,0,0,0,3.53.74,9.54,9.54,0,0,0,2.92-.38,1.51,1.51,0,0,0,1.15-1.55A1.71,1.71,0,0,0,453,34.58a25.5,25.5,0,0,0-4.18-1.11,47.93,47.93,0,0,1-5.84-1.58,9.84,9.84,0,0,1-4-2.71,7.32,7.32,0,0,1-1.72-5.12,7.61,7.61,0,0,1,3.67-7,17.58,17.58,0,0,1,9.3-2.25A16.85,16.85,0,0,1,459.28,17.06Z"/>
  <path class="cls-2" d="M493.21,18.64q4.07,3.82,4.07,11.13T493.21,40.9q-4.07,3.82-11.55,3.82t-11.53-3.8q-4.05-3.8-4.05-11.15t4.05-11.15q4.05-3.8,11.53-3.8T493.21,18.64Zm-16.09,4.91a7.22,7.22,0,0,0-1.55,4.87v2.69A7.21,7.21,0,0,0,477.13,36a5.65,5.65,0,0,0,4.54,1.81A5.72,5.72,0,0,0,486.22,36a7.15,7.15,0,0,0,1.58-4.87V28.43a7.15,7.15,0,0,0-1.58-4.87,5.72,5.72,0,0,0-4.56-1.81A5.66,5.66,0,0,0,477.13,23.55Z"/>
</svg>
